<svg width="19" height="19" viewBox="0 0 19 19" fill="none" xmlns="http://www.w3.org/2000/svg">
<g id="location icon">
<path id="icon/communication/location_on_24px" fill-rule="evenodd" clip-rule="evenodd" d="M9.49998 1.58337C6.43623 1.58337 3.95831 4.06129 3.95831 7.12504C3.95831 11.2813 9.49998 17.4167 9.49998 17.4167C9.49998 17.4167 15.0416 11.2813 15.0416 7.12504C15.0416 4.06129 12.5637 1.58337 9.49998 1.58337ZM5.54165 7.12504C5.54165 4.94004 7.31498 3.16671 9.49998 3.16671C11.685 3.16671 13.4583 4.94004 13.4583 7.12504C13.4583 9.40504 11.1783 12.8171 9.49998 14.9467C7.85331 12.833 5.54165 9.38129 5.54165 7.12504ZM7.52081 7.12504C7.52081 6.03198 8.40692 5.14587 9.49998 5.14587C10.2071 5.14587 10.8604 5.5231 11.214 6.13546C11.5675 6.74781 11.5675 7.50227 11.214 8.11462C10.8604 8.72698 10.2071 9.10421 9.49998 9.10421C8.40692 9.10421 7.52081 8.2181 7.52081 7.12504Z" fill="#764437" fill-opacity="0.95"/>
</g>
</svg>
