<svg width="19" height="19" viewBox="0 0 19 19" fill="none" xmlns="http://www.w3.org/2000/svg">
<path fill-rule="evenodd" clip-rule="evenodd" d="M3.16667 2.375H5.9375C6.37292 2.375 6.72917 2.73125 6.72917 3.16667C6.72917 4.15625 6.8875 5.10625 7.18042 5.99292C7.2675 6.27 7.20417 6.57875 6.9825 6.80042L5.24083 8.54208C6.38083 10.7825 8.2175 12.6112 10.4579 13.7592L12.1996 12.0175C12.3579 11.8671 12.5558 11.7879 12.7617 11.7879C12.8408 11.7879 12.9279 11.7958 13.0071 11.8275C13.8938 12.1204 14.8517 12.2788 15.8333 12.2788C16.2688 12.2788 16.625 12.635 16.625 13.0704V15.8333C16.625 16.2688 16.2688 16.625 15.8333 16.625C8.39958 16.625 2.375 10.6004 2.375 3.16667C2.375 2.73125 2.73125 2.375 3.16667 2.375ZM5.17748 3.95833C5.22498 4.66292 5.34373 5.35167 5.53373 6.00875L4.58373 6.95875C4.25914 6.00875 4.05331 5.00333 3.98206 3.95833H5.17748ZM12.9833 13.4742C13.6562 13.6642 14.345 13.7829 15.0417 13.8304V15.01C13.9967 14.9388 12.9912 14.7329 12.0333 14.4163L12.9833 13.4742Z" fill="#764437" fill-opacity="0.95"/>
</svg>
