<svg width="19" height="19" viewBox="0 0 19 19" fill="none" xmlns="http://www.w3.org/2000/svg">
<g id="Search Icon">
<path id="icon/action/search_24px" fill-rule="evenodd" clip-rule="evenodd" d="M11.8473 11.2852H12.4727L16.4231 15.2436L15.2435 16.4232L11.2852 12.4727V11.8473L11.0715 11.6257C10.169 12.4015 8.99729 12.8686 7.72271 12.8686C4.88062 12.8686 2.57687 10.5648 2.57687 7.72274C2.57687 4.88065 4.88062 2.5769 7.72271 2.5769C10.5648 2.5769 12.8685 4.88065 12.8685 7.72274C12.8685 8.99732 12.4015 10.169 11.6256 11.0715L11.8473 11.2852ZM4.16021 7.72274C4.16021 9.69399 5.75146 11.2852 7.72271 11.2852C9.69396 11.2852 11.2852 9.69399 11.2852 7.72274C11.2852 5.75149 9.69396 4.16024 7.72271 4.16024C5.75146 4.16024 4.16021 5.75149 4.16021 7.72274Z" fill="black"/>
</g>
</svg>
