<svg width="20" height="19" viewBox="0 0 20 19" fill="none" xmlns="http://www.w3.org/2000/svg">
<path d="M10.48 18.6738C15.7377 18.6738 20 14.694 20 9.78461C20 4.87523 15.7377 0.895386 10.48 0.895386C5.22221 0.895386 0.959961 4.87523 0.959961 9.78461C0.959961 14.694 5.22221 18.6738 10.48 18.6738Z" fill="#441F0E"/>
<path d="M11.2484 12.7988C10.5286 12.7468 10.2262 12.4136 9.6618 12.0936C9.35159 13.6134 8.97247 15.0702 7.84954 15.8313C7.5025 13.5343 8.35831 11.8091 8.75576 9.97778C8.0783 8.91296 8.83722 6.76969 10.2661 7.29782C12.0247 7.94717 8.74354 11.2572 10.9463 11.6706C13.2459 12.1022 14.1847 7.94479 12.7585 6.59253C10.698 4.6402 6.76073 6.54816 7.24489 9.34301C7.36284 10.0263 8.11903 10.2337 7.54696 11.1765C6.2282 10.9038 5.83483 9.93262 5.8854 8.63788C5.96703 6.51853 7.92489 5.03459 9.8887 4.82924C12.3723 4.56968 14.7033 5.68078 15.0251 7.86208C15.3871 10.324 13.9039 12.9902 11.2484 12.7988Z" fill="#F1F2F2"/>
</svg>
